<mxfile host="Electron" modified="2023-05-07T09:53:26.251Z" agent="Mozilla/5.0 (Windows NT 10.0; Win64; x64) AppleWebKit/537.36 (KHTML, like Gecko) draw.io/21.2.1 Chrome/112.0.5615.87 Electron/24.1.2 Safari/537.36" etag="IHhqj6OfNpWWxe4_OhIe" version="21.2.1" type="device">
  <diagram name="Page-1" id="DimW1Oy9OoHB3X27XopA">
    <mxGraphModel dx="1652" dy="948" grid="1" gridSize="3.937" guides="1" tooltips="1" connect="1" arrows="1" fold="1" page="1" pageScale="1" pageWidth="1169" pageHeight="1654" math="0" shadow="0">
      <root>
        <mxCell id="0" />
        <mxCell id="1" parent="0" />
        <mxCell id="w7NHnM57jvlBflPQLilR-22" style="edgeStyle=orthogonalEdgeStyle;rounded=0;orthogonalLoop=1;jettySize=auto;html=1;exitX=0.5;exitY=1;exitDx=0;exitDy=0;entryX=0.5;entryY=0;entryDx=0;entryDy=0;strokeWidth=2;fillColor=#f8cecc;strokeColor=#b85450;" parent="1" source="w7NHnM57jvlBflPQLilR-2" target="w7NHnM57jvlBflPQLilR-13" edge="1">
          <mxGeometry relative="1" as="geometry" />
        </mxCell>
        <mxCell id="w7NHnM57jvlBflPQLilR-2" value="&lt;h3&gt;&lt;font face=&quot;Verdana&quot;&gt;Ввод пароли&lt;/font&gt;&lt;/h3&gt;" style="shape=parallelogram;perimeter=parallelogramPerimeter;whiteSpace=wrap;html=1;fixedSize=1;strokeWidth=2;fillColor=#dae8fc;strokeColor=#6c8ebf;" parent="1" vertex="1">
          <mxGeometry x="494.00000000000006" y="354.33" width="181.102" height="59.055" as="geometry" />
        </mxCell>
        <mxCell id="w7NHnM57jvlBflPQLilR-37" style="edgeStyle=orthogonalEdgeStyle;rounded=0;orthogonalLoop=1;jettySize=auto;html=1;exitX=0;exitY=0.5;exitDx=0;exitDy=0;entryX=0.5;entryY=0;entryDx=0;entryDy=0;strokeWidth=2;fillColor=#f8cecc;strokeColor=#b85450;" parent="1" source="w7NHnM57jvlBflPQLilR-7" target="w7NHnM57jvlBflPQLilR-12" edge="1">
          <mxGeometry relative="1" as="geometry">
            <Array as="points">
              <mxPoint x="505" y="596" />
              <mxPoint x="380" y="596" />
              <mxPoint x="380" y="663" />
            </Array>
          </mxGeometry>
        </mxCell>
        <mxCell id="w7NHnM57jvlBflPQLilR-7" value="&lt;h3&gt;&lt;font face=&quot;Verdana&quot;&gt;Ввод режима&lt;/font&gt;&lt;/h3&gt;&lt;h3 style=&quot;line-height: 0%;&quot;&gt;&lt;font face=&quot;Verdana&quot;&gt;работы&amp;nbsp;&lt;/font&gt;&lt;/h3&gt;" style="shape=parallelogram;perimeter=parallelogramPerimeter;whiteSpace=wrap;html=1;fixedSize=1;strokeWidth=2;fillColor=#dae8fc;strokeColor=#6c8ebf;spacingBottom=7;" parent="1" vertex="1">
          <mxGeometry x="493.627" y="566.6770000000001" width="181.102" height="59.055" as="geometry" />
        </mxCell>
        <mxCell id="_VRtW2lEnULQKWLSe9jt-6" style="edgeStyle=orthogonalEdgeStyle;rounded=0;orthogonalLoop=1;jettySize=auto;html=1;exitX=0.5;exitY=1;exitDx=0;exitDy=0;entryX=0.5;entryY=0;entryDx=0;entryDy=0;strokeWidth=2;fillColor=#f8cecc;strokeColor=#b85450;" parent="1" source="w7NHnM57jvlBflPQLilR-10" target="_VRtW2lEnULQKWLSe9jt-2" edge="1">
          <mxGeometry relative="1" as="geometry" />
        </mxCell>
        <mxCell id="6ITlkcYq9AXpvyMl56Aw-5" style="edgeStyle=orthogonalEdgeStyle;rounded=0;orthogonalLoop=1;jettySize=auto;html=1;exitX=0.5;exitY=0;exitDx=0;exitDy=0;entryX=1;entryY=0.5;entryDx=0;entryDy=0;strokeWidth=2;fillColor=#f8cecc;strokeColor=#b85450;" edge="1" parent="1" source="w7NHnM57jvlBflPQLilR-10" target="w7NHnM57jvlBflPQLilR-7">
          <mxGeometry relative="1" as="geometry">
            <Array as="points">
              <mxPoint x="781" y="643" />
              <mxPoint x="781" y="643" />
              <mxPoint x="781" y="596" />
            </Array>
          </mxGeometry>
        </mxCell>
        <mxCell id="w7NHnM57jvlBflPQLilR-10" value="&lt;h3&gt;&lt;font face=&quot;Verdana&quot;&gt;Режим дистанционного управления?&lt;/font&gt;&lt;/h3&gt;" style="rhombus;whiteSpace=wrap;html=1;strokeWidth=2;fillColor=#ffe6cc;strokeColor=#d79b00;spacingBottom=-9;" parent="1" vertex="1">
          <mxGeometry x="650.7600000000001" y="660.8599999999999" width="259.842" height="78.74" as="geometry" />
        </mxCell>
        <mxCell id="w7NHnM57jvlBflPQLilR-25" style="edgeStyle=orthogonalEdgeStyle;rounded=0;orthogonalLoop=1;jettySize=auto;html=1;exitX=1;exitY=0.5;exitDx=0;exitDy=0;entryX=0;entryY=0.5;entryDx=0;entryDy=0;strokeWidth=2;fillColor=#f8cecc;strokeColor=#b85450;" parent="1" source="w7NHnM57jvlBflPQLilR-12" target="w7NHnM57jvlBflPQLilR-10" edge="1">
          <mxGeometry relative="1" as="geometry" />
        </mxCell>
        <mxCell id="_VRtW2lEnULQKWLSe9jt-5" style="edgeStyle=orthogonalEdgeStyle;rounded=0;orthogonalLoop=1;jettySize=auto;html=1;exitX=0.5;exitY=1;exitDx=0;exitDy=0;entryX=0.5;entryY=0;entryDx=0;entryDy=0;strokeWidth=2;fillColor=#f8cecc;strokeColor=#b85450;" parent="1" source="w7NHnM57jvlBflPQLilR-12" target="_VRtW2lEnULQKWLSe9jt-1" edge="1">
          <mxGeometry relative="1" as="geometry" />
        </mxCell>
        <mxCell id="w7NHnM57jvlBflPQLilR-12" value="&lt;h3&gt;&lt;font face=&quot;Verdana&quot;&gt;Автоматический режим?&lt;/font&gt;&lt;/h3&gt;" style="rhombus;whiteSpace=wrap;html=1;strokeWidth=2;fillColor=#ffe6cc;strokeColor=#d79b00;" parent="1" vertex="1">
          <mxGeometry x="249.18699999999998" y="660.8569999999999" width="259.842" height="78.74" as="geometry" />
        </mxCell>
        <mxCell id="w7NHnM57jvlBflPQLilR-26" style="edgeStyle=orthogonalEdgeStyle;rounded=0;orthogonalLoop=1;jettySize=auto;html=1;exitX=1;exitY=0.5;exitDx=0;exitDy=0;entryX=1;entryY=0.5;entryDx=0;entryDy=0;strokeWidth=2;fillColor=#f8cecc;strokeColor=#b85450;" parent="1" source="w7NHnM57jvlBflPQLilR-13" target="w7NHnM57jvlBflPQLilR-2" edge="1">
          <mxGeometry relative="1" as="geometry">
            <Array as="points">
              <mxPoint x="780" y="489" />
              <mxPoint x="780" y="384" />
            </Array>
          </mxGeometry>
        </mxCell>
        <mxCell id="6ITlkcYq9AXpvyMl56Aw-2" style="edgeStyle=orthogonalEdgeStyle;rounded=0;orthogonalLoop=1;jettySize=auto;html=1;exitX=0.5;exitY=1;exitDx=0;exitDy=0;entryX=0.5;entryY=0;entryDx=0;entryDy=0;fillColor=#f8cecc;strokeColor=#b85450;strokeWidth=2;" edge="1" parent="1" source="w7NHnM57jvlBflPQLilR-13" target="w7NHnM57jvlBflPQLilR-7">
          <mxGeometry relative="1" as="geometry" />
        </mxCell>
        <mxCell id="w7NHnM57jvlBflPQLilR-13" value="&lt;h3&gt;&lt;font face=&quot;Verdana&quot;&gt;Правильный пароль?&lt;/font&gt;&lt;/h3&gt;" style="rhombus;whiteSpace=wrap;html=1;strokeWidth=2;fillColor=#ffe6cc;strokeColor=#d79b00;" parent="1" vertex="1">
          <mxGeometry x="454.625" y="449.881" width="259.842" height="78.74" as="geometry" />
        </mxCell>
        <mxCell id="w7NHnM57jvlBflPQLilR-38" style="edgeStyle=orthogonalEdgeStyle;rounded=0;orthogonalLoop=1;jettySize=auto;html=1;exitX=0.5;exitY=1;exitDx=0;exitDy=0;entryX=0.5;entryY=0;entryDx=0;entryDy=0;strokeWidth=2;fillColor=#f8cecc;strokeColor=#b85450;" parent="1" source="w7NHnM57jvlBflPQLilR-15" target="w7NHnM57jvlBflPQLilR-19" edge="1">
          <mxGeometry relative="1" as="geometry" />
        </mxCell>
        <mxCell id="w7NHnM57jvlBflPQLilR-15" value="&lt;h3&gt;&lt;font face=&quot;Verdana&quot;&gt;Выполнение задач автоматического режима&lt;/font&gt;&lt;/h3&gt;" style="rounded=0;whiteSpace=wrap;html=1;strokeWidth=2;fillColor=#d5e8d4;strokeColor=#82b366;" parent="1" vertex="1">
          <mxGeometry x="245.25" y="876.8799999999999" width="267.716" height="59.055" as="geometry" />
        </mxCell>
        <mxCell id="w7NHnM57jvlBflPQLilR-39" style="edgeStyle=orthogonalEdgeStyle;rounded=0;orthogonalLoop=1;jettySize=auto;html=1;exitX=0.5;exitY=1;exitDx=0;exitDy=0;entryX=0.5;entryY=0;entryDx=0;entryDy=0;strokeWidth=2;fillColor=#f8cecc;strokeColor=#b85450;" parent="1" source="w7NHnM57jvlBflPQLilR-17" target="w7NHnM57jvlBflPQLilR-20" edge="1">
          <mxGeometry relative="1" as="geometry" />
        </mxCell>
        <mxCell id="w7NHnM57jvlBflPQLilR-17" value="&lt;h3&gt;&lt;font face=&quot;Verdana&quot;&gt;Выполнение задач режима дистанционного управления&lt;/font&gt;&lt;/h3&gt;" style="rounded=0;whiteSpace=wrap;html=1;strokeWidth=2;fillColor=#d5e8d4;strokeColor=#82b366;" parent="1" vertex="1">
          <mxGeometry x="646.8270000000002" y="876.877" width="267.716" height="59.055" as="geometry" />
        </mxCell>
        <mxCell id="w7NHnM57jvlBflPQLilR-40" style="edgeStyle=orthogonalEdgeStyle;rounded=0;orthogonalLoop=1;jettySize=auto;html=1;exitX=0;exitY=0.5;exitDx=0;exitDy=0;entryX=0;entryY=0.5;entryDx=0;entryDy=0;strokeWidth=2;fillColor=#f8cecc;strokeColor=#b85450;" parent="1" source="w7NHnM57jvlBflPQLilR-19" target="w7NHnM57jvlBflPQLilR-15" edge="1">
          <mxGeometry relative="1" as="geometry">
            <Array as="points">
              <mxPoint x="201" y="1011" />
              <mxPoint x="201" y="906" />
            </Array>
          </mxGeometry>
        </mxCell>
        <mxCell id="ewX7nNisTu36Y-7Z1KVo-2" style="edgeStyle=orthogonalEdgeStyle;rounded=0;orthogonalLoop=1;jettySize=auto;html=1;exitX=0.5;exitY=1;exitDx=0;exitDy=0;entryX=1;entryY=0.5;entryDx=0;entryDy=0;fillColor=#f8cecc;strokeColor=#b85450;strokeWidth=2;" parent="1" source="w7NHnM57jvlBflPQLilR-19" target="_VRtW2lEnULQKWLSe9jt-2" edge="1">
          <mxGeometry relative="1" as="geometry">
            <Array as="points">
              <mxPoint x="379" y="1087" />
              <mxPoint x="976" y="1087" />
              <mxPoint x="976" y="812" />
            </Array>
          </mxGeometry>
        </mxCell>
        <mxCell id="w7NHnM57jvlBflPQLilR-19" value="&lt;h3 style=&quot;line-height: 20%;&quot;&gt;&lt;font face=&quot;Verdana&quot;&gt;Нажим кнопку&lt;/font&gt;&lt;/h3&gt;&lt;h3 style=&quot;line-height: 20%;&quot;&gt;&lt;font face=&quot;Verdana&quot;&gt;перехода режима?&lt;/font&gt;&lt;/h3&gt;" style="rhombus;whiteSpace=wrap;html=1;strokeWidth=2;fillColor=#ffe6cc;strokeColor=#d79b00;" parent="1" vertex="1">
          <mxGeometry x="249.184" y="971.3739999999998" width="259.842" height="78.74" as="geometry" />
        </mxCell>
        <mxCell id="w7NHnM57jvlBflPQLilR-42" style="edgeStyle=orthogonalEdgeStyle;rounded=0;orthogonalLoop=1;jettySize=auto;html=1;exitX=0;exitY=0.5;exitDx=0;exitDy=0;entryX=1;entryY=0.5;entryDx=0;entryDy=0;strokeWidth=2;fillColor=#f8cecc;strokeColor=#b85450;" parent="1" source="w7NHnM57jvlBflPQLilR-20" target="_VRtW2lEnULQKWLSe9jt-1" edge="1">
          <mxGeometry relative="1" as="geometry" />
        </mxCell>
        <mxCell id="ewX7nNisTu36Y-7Z1KVo-1" style="edgeStyle=orthogonalEdgeStyle;rounded=0;orthogonalLoop=1;jettySize=auto;html=1;exitX=1;exitY=0.5;exitDx=0;exitDy=0;entryX=1;entryY=0.5;entryDx=0;entryDy=0;fillColor=#f8cecc;strokeColor=#b85450;strokeWidth=2;" parent="1" source="w7NHnM57jvlBflPQLilR-20" target="w7NHnM57jvlBflPQLilR-17" edge="1">
          <mxGeometry relative="1" as="geometry">
            <Array as="points">
              <mxPoint x="953" y="1011" />
              <mxPoint x="953" y="906" />
            </Array>
          </mxGeometry>
        </mxCell>
        <mxCell id="w7NHnM57jvlBflPQLilR-20" value="&lt;h3 style=&quot;line-height: 20%;&quot;&gt;&lt;font face=&quot;Verdana&quot;&gt;Нажим кнопку&lt;/font&gt;&lt;/h3&gt;&lt;h3 style=&quot;line-height: 20%;&quot;&gt;&lt;font face=&quot;Verdana&quot;&gt;перехода режима?&lt;/font&gt;&lt;/h3&gt;" style="rhombus;whiteSpace=wrap;html=1;strokeWidth=2;fillColor=#ffe6cc;strokeColor=#d79b00;" parent="1" vertex="1">
          <mxGeometry x="650.7610000000002" y="971.3710000000001" width="259.842" height="78.74" as="geometry" />
        </mxCell>
        <mxCell id="w7NHnM57jvlBflPQLilR-27" value="&lt;h3&gt;&lt;font face=&quot;Verdana&quot;&gt;Нет&lt;/font&gt;&lt;/h3&gt;" style="text;html=1;align=center;verticalAlign=middle;resizable=0;points=[];autosize=1;strokeColor=none;fillColor=none;strokeWidth=2;" parent="1" vertex="1">
          <mxGeometry x="708.661" y="448.56499999999994" width="51.181" height="59.055" as="geometry" />
        </mxCell>
        <mxCell id="w7NHnM57jvlBflPQLilR-28" value="&lt;h3&gt;&lt;font face=&quot;Verdana&quot;&gt;Нет&lt;/font&gt;&lt;/h3&gt;" style="text;html=1;align=center;verticalAlign=middle;resizable=0;points=[];autosize=1;strokeColor=none;fillColor=none;strokeWidth=2;" parent="1" vertex="1">
          <mxGeometry x="499.99800000000005" y="657.482" width="51.181" height="59.055" as="geometry" />
        </mxCell>
        <mxCell id="w7NHnM57jvlBflPQLilR-32" value="&lt;h3&gt;&lt;font face=&quot;Verdana&quot;&gt;Нет&lt;/font&gt;&lt;/h3&gt;" style="text;html=1;align=center;verticalAlign=middle;resizable=0;points=[];autosize=1;strokeColor=none;fillColor=none;strokeWidth=2;" parent="1" vertex="1">
          <mxGeometry x="776.735" y="618.1089999999999" width="51.181" height="59.055" as="geometry" />
        </mxCell>
        <mxCell id="w7NHnM57jvlBflPQLilR-33" value="&lt;h3&gt;&lt;font face=&quot;Verdana&quot;&gt;Да&lt;/font&gt;&lt;/h3&gt;" style="text;html=1;align=center;verticalAlign=middle;resizable=0;points=[];autosize=1;strokeColor=none;fillColor=none;strokeWidth=2;" parent="1" vertex="1">
          <mxGeometry x="582.678" y="507.62199999999996" width="43.306999999999995" height="59.055" as="geometry" />
        </mxCell>
        <mxCell id="w7NHnM57jvlBflPQLilR-34" value="&lt;h3&gt;&lt;font face=&quot;Verdana&quot;&gt;Да&lt;/font&gt;&lt;/h3&gt;" style="text;html=1;align=center;verticalAlign=middle;resizable=0;points=[];autosize=1;strokeColor=none;fillColor=none;strokeWidth=2;" parent="1" vertex="1">
          <mxGeometry x="777.735" y="720.469" width="43.306999999999995" height="59.055" as="geometry" />
        </mxCell>
        <mxCell id="w7NHnM57jvlBflPQLilR-35" value="&lt;h3&gt;&lt;font face=&quot;Verdana&quot;&gt;Да&lt;/font&gt;&lt;/h3&gt;" style="text;html=1;align=center;verticalAlign=middle;resizable=0;points=[];autosize=1;strokeWidth=2;" parent="1" vertex="1">
          <mxGeometry x="374.012" y="720.466" width="43.306999999999995" height="59.055" as="geometry" />
        </mxCell>
        <mxCell id="w7NHnM57jvlBflPQLilR-46" value="&lt;h3&gt;&lt;font face=&quot;Verdana&quot;&gt;Да&lt;/font&gt;&lt;/h3&gt;" style="text;html=1;align=center;verticalAlign=middle;resizable=0;points=[];autosize=1;strokeColor=none;fillColor=none;strokeWidth=2;" parent="1" vertex="1">
          <mxGeometry x="610.422" y="964.5660000000003" width="43.306999999999995" height="59.055" as="geometry" />
        </mxCell>
        <mxCell id="w7NHnM57jvlBflPQLilR-47" value="&lt;h3&gt;&lt;font face=&quot;Verdana&quot;&gt;Да&lt;/font&gt;&lt;/h3&gt;" style="text;html=1;align=center;verticalAlign=middle;resizable=0;points=[];autosize=1;strokeColor=none;fillColor=none;strokeWidth=2;" parent="1" vertex="1">
          <mxGeometry x="374.009" y="1035.433" width="43.306999999999995" height="59.055" as="geometry" />
        </mxCell>
        <mxCell id="w7NHnM57jvlBflPQLilR-48" value="&lt;h3&gt;&lt;font face=&quot;Verdana&quot;&gt;Нет&lt;/font&gt;&lt;/h3&gt;" style="text;html=1;align=center;verticalAlign=middle;resizable=0;points=[];autosize=1;strokeColor=none;fillColor=none;strokeWidth=2;" parent="1" vertex="1">
          <mxGeometry x="206.78499999999994" y="967.8089999999999" width="51.181" height="59.055" as="geometry" />
        </mxCell>
        <mxCell id="w7NHnM57jvlBflPQLilR-49" value="&lt;h3&gt;&lt;font face=&quot;Verdana&quot;&gt;Нет&lt;/font&gt;&lt;/h3&gt;" style="text;html=1;align=center;verticalAlign=middle;resizable=0;points=[];autosize=1;strokeColor=none;fillColor=none;strokeWidth=2;" parent="1" vertex="1">
          <mxGeometry x="903.5719999999999" y="966.8059999999997" width="51.181" height="59.055" as="geometry" />
        </mxCell>
        <mxCell id="_VRtW2lEnULQKWLSe9jt-3" style="edgeStyle=orthogonalEdgeStyle;rounded=0;orthogonalLoop=1;jettySize=auto;html=1;exitX=0.5;exitY=1;exitDx=0;exitDy=0;entryX=0.5;entryY=0;entryDx=0;entryDy=0;strokeWidth=2;fillColor=#f8cecc;strokeColor=#b85450;" parent="1" source="_VRtW2lEnULQKWLSe9jt-1" target="w7NHnM57jvlBflPQLilR-15" edge="1">
          <mxGeometry relative="1" as="geometry" />
        </mxCell>
        <mxCell id="_VRtW2lEnULQKWLSe9jt-1" value="&lt;h3&gt;&lt;font face=&quot;Verdana&quot;&gt;Отправка сигнала автоматического режим на пульт&lt;/font&gt;&lt;/h3&gt;" style="rounded=0;whiteSpace=wrap;html=1;strokeWidth=2;fillColor=#d5e8d4;strokeColor=#82b366;" parent="1" vertex="1">
          <mxGeometry x="245.24699999999999" y="782.3969999999999" width="267.716" height="59.055" as="geometry" />
        </mxCell>
        <mxCell id="_VRtW2lEnULQKWLSe9jt-4" style="edgeStyle=orthogonalEdgeStyle;rounded=0;orthogonalLoop=1;jettySize=auto;html=1;exitX=0.5;exitY=1;exitDx=0;exitDy=0;strokeWidth=2;fillColor=#f8cecc;strokeColor=#b85450;" parent="1" source="_VRtW2lEnULQKWLSe9jt-2" target="w7NHnM57jvlBflPQLilR-17" edge="1">
          <mxGeometry relative="1" as="geometry" />
        </mxCell>
        <mxCell id="_VRtW2lEnULQKWLSe9jt-2" value="&lt;h3&gt;&lt;font face=&quot;Verdana&quot;&gt;Отправка сигнала режима дистанционного режима на пульт&lt;/font&gt;&lt;/h3&gt;" style="rounded=0;whiteSpace=wrap;html=1;strokeWidth=2;fillColor=#d5e8d4;strokeColor=#82b366;" parent="1" vertex="1">
          <mxGeometry x="646.8240000000002" y="782.394" width="267.716" height="59.055" as="geometry" />
        </mxCell>
        <mxCell id="_VRtW2lEnULQKWLSe9jt-7" value="&lt;h2&gt;&lt;font face=&quot;Verdana&quot;&gt;Схема программного обеспечения&lt;/font&gt;&lt;/h2&gt;" style="text;html=1;align=center;verticalAlign=middle;resizable=0;points=[];autosize=1;strokeColor=none;fillColor=none;" parent="1" vertex="1">
          <mxGeometry x="386.02" y="149.606" width="381.889" height="66.929" as="geometry" />
        </mxCell>
        <mxCell id="6ITlkcYq9AXpvyMl56Aw-3" style="edgeStyle=orthogonalEdgeStyle;rounded=0;orthogonalLoop=1;jettySize=auto;html=1;exitX=0.5;exitY=1;exitDx=0;exitDy=0;exitPerimeter=0;fillColor=#f8cecc;strokeColor=#b85450;strokeWidth=2;" edge="1" parent="1" source="xijdDQfkw2uNbFQboKMX-2" target="w7NHnM57jvlBflPQLilR-2">
          <mxGeometry relative="1" as="geometry" />
        </mxCell>
        <mxCell id="xijdDQfkw2uNbFQboKMX-2" value="&lt;h3 style=&quot;border-color: var(--border-color);&quot;&gt;&lt;font style=&quot;border-color: var(--border-color);&quot; face=&quot;Verdana&quot;&gt;Начало&lt;/font&gt;&lt;/h3&gt;" style="strokeWidth=2;html=1;shape=mxgraph.flowchart.terminator;whiteSpace=wrap;fillColor=#f8cecc;strokeColor=#b85450;" parent="1" vertex="1">
          <mxGeometry x="533" y="261.78000000000003" width="102.362" height="59.055" as="geometry" />
        </mxCell>
      </root>
    </mxGraphModel>
  </diagram>
</mxfile>
